<svg width="1306" height="1273" viewBox="0 0 1306 1273" fill="none" xmlns="http://www.w3.org/2000/svg">
<path fill-rule="evenodd" clip-rule="evenodd" d="M64.3809 540.148C62.3987 544.935 62.9198 545.463 91.9855 567.934C105.402 578.304 129.845 597.852 146.309 611.371C189.122 646.529 210.66 661.96 240.515 678.865C245.72 681.812 250.28 684.47 250.652 684.773C251.147 685.177 250.071 685.942 246.625 687.637C209.505 705.893 163.05 737.422 160.83 745.864C159.892 749.44 162.943 752.227 178.635 762.121C225.018 791.368 259.818 818.03 336.129 882.785C388.936 927.595 460.205 969.346 527.938 995.152C651.454 1042.21 766.422 1043.61 866.974 999.275C881.579 992.834 882.025 992.603 895.87 984.366C955.206 949.053 1006.58 941.348 1041.22 962.562C1047.47 966.39 1050.49 966.416 1053.55 962.662C1056.67 958.847 1056.01 956.005 1050.74 950.487C1025.41 923.974 1023.3 869.145 1045.2 806.249C1050.49 791.034 1050.63 790.551 1054.01 774.951C1077.29 667.553 1052.88 555.199 982.014 443.623C943.154 382.438 887.964 320.984 833.478 278.232C754.74 216.45 721.644 187.702 683.693 148.123C667.817 131.563 665.939 130.725 660.274 137.665C652.839 146.775 629.529 205.982 625.118 226.961C624.581 229.51 623.98 230.159 623.22 229.015C621.82 226.904 607.647 211 601.098 204.191C580.543 182.813 567.032 170.747 530.252 140.917C513.706 127.497 489.655 107.468 476.806 96.4029C451.443 74.5687 449.19 72.9288 445.964 73.9503C441.268 75.4353 438.149 80.9644 430.631 101.13C399.273 185.252 398.371 283.576 428.072 380.498C429.844 386.281 431.231 391.091 431.153 391.187C431.075 391.282 426.644 390.916 421.306 390.368C394.956 387.673 364.966 388.292 360.157 391.633C355.045 395.183 354.246 398.063 355.745 407.531C357.56 419.012 362.14 440.019 365.515 452.356C367.127 458.243 368.275 463.279 368.07 463.549C367.864 463.816 364.838 463.716 361.349 463.325C300.999 456.575 230.185 463.59 173.721 481.915C127.534 496.906 69.4909 527.819 64.3809 540.148ZM156.583 535.485C228.108 504.874 317.652 492.772 376.258 505.797C392.427 509.39 391.937 508.994 397.459 522.905C405.764 543.821 418.389 570.183 430.452 591.793C433.481 597.218 436.886 603.738 438.02 606.286C439.156 608.832 443.273 615.99 447.17 622.194C457.484 638.607 457.686 638.208 440.203 635.836C353.267 624.036 273.046 600.283 188.703 561.37C145.035 541.224 144.388 540.704 156.583 535.485ZM461.593 158.992C464.255 158.724 470.466 165.729 485.942 186.459C540.987 260.182 584.212 341.047 613.607 425.304C622.831 451.736 623.32 450.782 604.083 443.844C597.192 441.359 589.416 438.854 586.805 438.275C584.194 437.696 577.427 435.676 571.771 433.782C546.214 425.239 522.409 418.279 501.608 413.278C483.721 408.974 483.577 408.888 478.398 398.932C451.004 346.287 442.658 269.942 454.962 184.595C458.099 162.835 459.028 159.252 461.593 158.992ZM182.957 591.092C184.512 591.686 193.251 595.933 202.375 600.53C253.878 626.468 295.764 642.128 339.085 651.638C363.497 656.999 363.441 657.31 336.903 663.651C330.365 665.216 321.36 667.537 316.894 668.809C307.71 671.432 306.196 671.395 299.733 668.39C267.132 653.236 228.263 630.507 199.563 609.81C180.411 596.001 172.501 587.086 182.957 591.092ZM520.205 177.732C535.757 186.666 577.581 229.778 607.395 267.61C622.584 286.882 621.532 284.262 620.255 299.64C619.749 305.715 619.208 314.031 619.054 318.119C618.172 341.589 617.278 341.776 607.802 320.476C590.385 281.31 565.382 241.512 530.869 198.017C514.365 177.22 512.222 173.146 520.205 177.732ZM397.929 424.804C403.867 423.075 437.784 427.597 466.491 433.943C521.688 446.141 574.016 465.201 631.662 494.1C649.521 503.056 648.592 502.187 653.502 514.499C655.722 520.069 659.952 529.981 662.901 536.53C670.661 553.767 670.61 555.103 662.346 551.212C633.732 537.732 603.856 526.183 597.555 526.168C593.663 526.158 594.405 527.514 600.967 532.372C604.045 534.654 612.393 540.829 619.518 546.096C633.751 556.616 654.645 574.501 669.895 589.221C712.476 630.312 716.084 634.161 727.606 650.751C732.822 658.265 742.554 671.72 749.232 680.65C763.202 699.34 764.887 701.822 764.187 702.68C763.009 704.123 761.656 703.166 727.212 676.516C692.59 649.729 672.771 634.642 663.091 627.702C658.959 624.742 651.832 619.473 647.25 615.996C585.833 569.357 528.465 528.78 525.427 529.829C522.769 530.747 525.936 533.736 595.854 596.32C626.371 623.638 652.222 646.878 653.298 647.966C654.971 649.661 691.653 682.32 732.81 718.762C754.588 738.042 754.493 739.826 732.284 728.645C711.527 718.197 684.26 705.944 662.009 697.066C624.049 681.919 578.72 649.632 550.365 617.539C543.053 609.262 542.322 608.534 541.199 608.388C539.574 608.177 539.965 610.746 542.42 616.432C546.421 625.701 557.919 646.191 564.415 655.632C572.716 667.699 572.501 667.841 552.632 663.38C546.176 661.932 536.841 660.024 531.886 659.142C518.401 656.744 520.154 658.052 503.912 638.281C451.371 574.335 413.289 505.404 398.97 448.323C394.485 430.453 394.282 425.863 397.929 424.804ZM262.776 742.681C311.404 723.401 354.068 711.376 375.605 710.886C386.292 710.641 383.754 709.089 408.738 731.173C560.861 865.647 725.939 948.22 839.283 946.526C856.332 946.27 858.698 946.657 856.509 949.339C853.557 952.957 827.21 962.486 804.472 968.158C690.147 996.681 559.767 969.662 435.033 891.599C383.344 859.252 297.303 796.164 259.346 762.782C244.035 749.319 243.892 750.17 262.776 742.681ZM686.994 218.592C694.498 217.026 802.924 312.442 857.012 368.206C971.409 486.149 1025.74 624.042 1008.17 751.822C1004.75 776.705 1001.32 781.792 998.414 766.28C987.747 709.247 962.99 656.33 918.442 595.348C867.635 525.801 783.556 443.01 699.499 379.759C678.35 363.845 675.793 361.738 674.879 359.464C671.1 350.067 670.32 324.142 672.975 296.302C675.756 267.136 682.608 223.159 684.974 219.308C685.088 219.124 685.999 218.8 686.994 218.592ZM459.645 703.301C462.481 702.301 477.521 701.56 482.671 702.168C484.966 702.438 490.73 702.746 495.471 702.849C613.514 705.443 756.417 764.486 928.964 881.951C963.947 905.767 964.652 906.708 945.493 903.968C921.813 900.583 906.253 900.498 873.231 903.568C861.658 904.646 849.325 905.537 845.821 905.551C757.557 905.904 648.226 857.683 524.292 763.742C507.758 751.208 466.712 717.191 460.418 710.804C455.948 706.271 455.782 704.66 459.645 703.301ZM684.461 432.146C686.527 431.607 691.617 435.241 716.894 455.298C828.283 543.68 910.656 641.805 943.639 725.403C954.067 751.833 958.008 768.343 961.504 800.266C964.98 831.995 969.43 853.264 976.322 871.083C982.49 887.033 979.806 886.096 956.861 864.299C806.627 721.57 713.397 583.296 688.133 465.745C686.951 460.241 685.438 453.916 684.776 451.689C681.693 441.347 681.557 432.903 684.461 432.146Z" fill="#121831" fill-opacity="0.05"/>
</svg>
